<svg width="100" height="79" viewBox="0 0 100 79" fill="none" xmlns="http://www.w3.org/2000/svg">
<g clip-path="url(#clip0_3616_27023)">
<path d="M99.9998 79H81.0866C74.4939 79 68.7417 74.5118 67.1261 68.1106L50.1304 0.951172H68.8477C75.4241 0.951172 81.1682 5.41484 82.8001 11.7997L99.9917 79H99.9998Z" fill="#212120"/>
<path d="M0 79.0005H32.5228C37.7693 79.0005 42.6077 76.1392 45.1371 71.5366L60.7702 43.1113H28.4269C23.205 43.1113 18.391 45.9481 15.8453 50.5181L0 79.0005Z" fill="#212120"/>
<path d="M0.269043 36.8404H21.8829C27.1294 36.8404 31.9678 33.979 34.4972 29.3764L50.1303 0.951172H28.6959C23.474 0.951172 18.66 3.78797 16.1143 8.35792L0.269043 36.8404Z" fill="#212120"/>
</g>
<defs>
<clipPath id="clip0_3616_27023">
<rect width="100" height="78.0488" fill="white" transform="translate(0 0.951172)"/>
</clipPath>
</defs>
</svg>
